# xmcd
#
# Track frame offsets: 
#        180
#        17732
#        30349
#        47437
#        67309
#        82308
#        97004
#        108552
#        121382
#        139601
#
# Disc length: 2051 seconds
#
# Revision: 0
# Processed by: cddbd v1.5.1PL0 Copyright (c) Steve Scherf et al.
# Submitted via: ExactAudioCopy v0.95a4
#
DISCID=8808010a
DTITLE=Arizona - Golden Country Hits Vol.1
DYEAR=1900
DGENRE=Country
TTITLE0=Livin' On Love
TTITLE1=My Next Broken Heart
TTITLE2=Jukebox On My Mind
TTITLE3=Margaritaville
TTITLE4=Luchenbach Texas
TTITLE5=Hillybilly Country Lilly
TTITLE6=Some Broken Hearts Never Mind
TTITLE7=Don't Rock The Jukebox
TTITLE8=I Need More Of You
TTITLE9=Green Green Grass Of Home
EXTD=
EXTT0=
EXTT1=
EXTT2=
EXTT3=
EXTT4=
EXTT5=
EXTT6=
EXTT7=
EXTT8=
EXTT9=
PLAYORDER=
